# xmcd
# 
# Track frame offsets:
#     180
#     26023
#     41386
#     56450
#     70851
#     86295
#     100474
#     116152
#     132034
#     144194
#     160702
#     172857
#     187478
# 
# Disc length: 2666
# 
# Revision: 5
# Processed by: cddbd v1.5.2PL0 Copyright (c) Steve Scherf et al.
# Submitted via: fre:ac v1.0.31
# 
DISCID=a80a680d
DTITLE=Barry Manilow - Even Now
DYEAR=1978
DGENRE=Rock/Pop
TTITLE0=Copacabana (At The Copa)
TTITLE1=Somewhere In The Night
TTITLE2=A Linda Song
TTITLE3=Can't Smile Without You
TTITLE4=Leavin' In The Morning
TTITLE5=Where Do I Go From Here
TTITLE6=Even Now
TTITLE7=I Was A Fool (To Let You Go)
TTITLE8=Losing Touch
TTITLE9=I Just Want To Be The One In Your Life
TTITLE10=Starting Again
TTITLE11=Sunrise
TTITLE12=No Love For Jenny
EXTD=YEAR: 1978
EXTT0=
EXTT1=
EXTT2=
EXTT3=
EXTT4=
EXTT5=
EXTT6=
EXTT7=
EXTT8=
EXTT9=
EXTT10=
EXTT11=
EXTT12=
PLAYORDER=
